<?xml version="1.0" encoding="UTF-8"?>
<svg id="Layer_1" data-name="Layer 1" xmlns="http://www.w3.org/2000/svg" viewBox="0 0 360 360">
  <defs>
    <style>
      .cls-1 {
        fill: none;
        stroke: #000;
        stroke-miterlimit: 10;
        stroke-width: 7px;
      }
    </style>
  </defs>
  <path class="cls-1" d="m231.9,132.23v90.92c0,4.22-3.42,7.64-7.65,7.64s-7.64-3.42-7.64-7.64v-90.92c0-4.22,3.42-7.64,7.64-7.64,2.11,0,4.03.86,5.41,2.24s2.24,3.29,2.24,5.4Z"/>
  <path class="cls-1" d="m244.76,177.69c0,7.11-5.76,12.87-12.86,12.87v-25.74c7.1,0,12.86,5.76,12.86,12.87Z"/>
  <g>
    <rect class="cls-1" x="129.17" y="155.92" width="40.05" height="43.53"/>
    <path class="cls-1" d="m129.17,163.75v27.86c-7.69,0-13.93-6.23-13.93-13.93s6.24-13.93,13.93-13.93Z"/>
  </g>
  <path class="cls-1" d="m216.75,132.28c-5.68,15.2-20.34,26.03-37.52,26.03-3.46,0-6.81-.44-10.01-1.26"/>
  <path class="cls-1" d="m216.75,223.52c-5.68-15.2-20.34-26.03-37.52-26.03-3.46,0-6.81.44-10.01,1.26"/>
  <path class="cls-1" d="m153.9,235.41h0c-5.38,0-10.47-4.36-11.38-9.74l-4.44-26.22h19.47l4.44,26.22c.91,5.38-2.71,9.74-8.09,9.74Z"/>
</svg>