<?xml version="1.0" encoding="UTF-8"?>
<svg id="Layer_1" data-name="Layer 1" xmlns="http://www.w3.org/2000/svg" viewBox="0 0 360 360">
  <defs>
    <style>
      .cls-1 {
        fill: none;
        stroke: #000;
        stroke-miterlimit: 10;
        stroke-width: 7px;
      }
    </style>
  </defs>
  <path class="cls-1" d="m108.29,171.76c-16.86-22.38-2.69-56.2,26.47-57.99.67-.04,1.35-.07,2.03-.08.23,0,.47,0,.71,0,24.29,0,43.98,19.69,43.98,43.98,0-24.29,19.69-43.98,43.97-43.98.24,0,.48,0,.72,0,.59,0,1.18.03,1.77.06,30.91,1.72,44.9,39.71,23.18,61.78l-69.64,70.79-44.7-44.7"/>
  <polyline class="cls-1" points="201.03 180.56 178.01 180.56 168.34 204.91 155.66 149.86 146.32 181.56 98.37 181.56"/>
</svg>