<?xml version="1.0" encoding="UTF-8"?>
<svg id="Layer_1" data-name="Layer 1" xmlns="http://www.w3.org/2000/svg" viewBox="0 0 360 360">
  <defs>
    <style>
      .cls-1 {
        fill: none;
        stroke: #000;
        stroke-miterlimit: 10;
        stroke-width: 7px;
      }
    </style>
  </defs>
  <path class="cls-1" d="m194.33,131.75v83.82h-42.57c0-7.73-6.27-13.99-14-13.99s-14,6.26-14,13.99h-13.25c-.73,0-1.32-.59-1.32-1.32v-82.5c0-.73.59-1.32,1.32-1.32h82.5c.73,0,1.32.59,1.32,1.32Z"/>
  <path class="cls-1" d="m151.76,215.57c0,7.73-6.27,14-14,14s-14-6.27-14-14,6.27-13.99,14-13.99,14,6.26,14,13.99Z"/>
  <path class="cls-1" d="m237.52,214.96c0,.2,0,.39-.02.59-.3,7.46-6.45,13.41-13.98,13.41s-13.68-5.95-13.98-13.41c-.02-.2-.02-.39-.02-.59,0-7.73,6.27-13.99,14-13.99s14,6.26,14,13.99Z"/>
  <path class="cls-1" d="m250.81,179.16v36.39h-13.31c.02-.2.02-.39.02-.59,0-7.73-6.27-13.99-14-13.99s-14,6.26-14,13.99c0,.2,0,.39.02.59h-15.21v-68.43h34.25l22.23,32.04Z"/>
  <polyline class="cls-1" points="224.73 158.97 206.13 158.97 206.13 179.73 250.81 179.73"/>
</svg>