<?xml version="1.0" encoding="UTF-8"?>
<svg id="Layer_1" data-name="Layer 1" xmlns="http://www.w3.org/2000/svg" viewBox="0 0 360 360">
  <defs>
    <style>
      .cls-1 {
        fill: none;
        stroke: #000;
        stroke-miterlimit: 10;
        stroke-width: 4.36px;
      }
    </style>
  </defs>
  <g>
    <path d="m238.21,166.36c-4.22-.7-8.44-1.37-12.66-2.07-.96-.15-1.91-.34-2.68-.48-1.26-3.03-2.44-5.86-3.65-8.8.62-.89,1.3-1.88,1.98-2.85,2.31-3.3,4.63-6.58,6.93-9.89.98-1.41.93-2.69-.2-3.83-3.35-3.38-6.7-6.73-10.09-10.06-.42-.41-1.03-.69-1.6-.85-.91-.25-1.68.24-2.4.76-3.79,2.73-7.58,5.47-11.38,8.2-.38.27-.77.51-1.03.69-3.02-1.26-5.88-2.46-8.85-3.69-.04-.18-.11-.46-.16-.74-.86-4.81-1.71-9.63-2.56-14.44-.33-1.84-1.25-2.65-3.12-2.66-4.53-.01-9.06-.01-13.59,0-2.03.01-2.93.76-3.26,2.75-.71,4.26-1.39,8.52-2.09,12.77-.13.81-.3,1.62-.42,2.27-3.05,1.25-5.92,2.44-8.85,3.65-.18-.12-.42-.27-.66-.44-3.89-2.78-7.78-5.57-11.68-8.34-1.74-1.24-2.82-1.17-4.32.31-1.96,1.94-3.91,3.89-5.86,5.84-1.3,1.3-2.6,2.62-3.92,3.92-.76.75-1.06,1.66-.81,2.67.12.51.44.99.74,1.43,2.25,3.25,4.52,6.48,6.78,9.72.64.92,1.27,1.85,1.83,2.67-1.26,3.03-2.47,5.93-3.71,8.92-.22.05-.54.13-.86.18-4.71.79-9.43,1.58-14.15,2.36-1.85.31-2.67,1.22-2.67,3.09-.02,4.61-.02,9.21-.01,13.81.01,1.86.83,2.78,2.67,3.1,3.93.69,7.85,1.38,11.78,2.08,1.13.2,2.26.43,3.21.61,1.28,3.08,2.48,5.98,3.72,8.96-.31.45-.66.96-1.02,1.46-2.57,3.59-5.15,7.19-7.71,10.79-1.26,1.76-1.17,2.88.35,4.4,3.15,3.16,6.3,6.31,9.46,9.46,1.43,1.43,2.59,1.55,4.24.41,3.6-2.51,7.18-5.03,10.78-7.54.62-.44,1.24-.85,1.73-1.19,3.04,1.25,5.91,2.43,8.88,3.66.07.32.17.74.25,1.16.77,4.61,1.58,9.22,2.28,13.84.32,2.08,1.67,2.85,3.33,2.84,4.5-.03,8.99,0,13.49-.02,1.94,0,2.85-.78,3.19-2.69.79-4.35,1.56-8.71,2.34-13.06.13-.73.28-1.46.39-1.99l-2.76-4.89c-1.43.45-2.19,1.34-2.44,2.9-.71,4.32-2.45,13.79-2.55,14.25h-9.92c-.27-1.56-1.87-11.05-2.37-14.27-.24-1.59-1.07-2.52-2.64-2.91-3.44-.84-6.69-2.16-9.72-4-1.52-.92-2.79-.78-4.2.23-3.61,2.61-11.36,7.97-11.72,8.21-2.31-2.31-4.62-4.62-6.97-6.97.21-.35,5.6-7.96,8.13-11.5.15-.21.3-.41.44-.62.77-1.1.8-2.2.11-3.36-1.41-2.33-2.56-4.79-3.42-7.38-.33-.96-.62-1.93-.87-2.92-.35-1.39-1.21-2.15-2.62-2.39-4.36-.76-13.9-2.5-14.39-2.6v-9.89c1.02-.19,10.57-1.81,14.32-2.41,1.45-.23,2.35-.99,2.71-2.44.9-3.58,2.29-6.95,4.19-10.11.81-1.34.74-2.54-.18-3.82-2.51-3.51-7.99-11.42-8.24-11.79l7.03-7.03c.28.18,8.03,5.64,11.53,8.22,1.45,1.07,2.76,1.13,4.3.19,2.93-1.78,6.09-3.06,9.42-3.87,1.75-.43,2.62-1.4,2.88-3.18.67-4.48,2.25-13.76,2.3-14h9.89c.18.85,1.91,10.53,2.58,14.49.24,1.4.99,2.28,2.39,2.63,3.58.9,6.95,2.3,10.11,4.19,1.3.78,2.49.73,3.73-.18,3.63-2.65,11.54-8.27,11.75-8.41,2.34,2.34,4.63,4.64,7.03,7.03-.13.21-5.63,8.1-8.14,11.7-.34.5-.64,1.06-.82,1.63-.23.72-.03,1.42.36,2.08,1.91,3.27,3.38,6.73,4.3,10.41.35,1.4,1.32,2.06,2.72,2.28,4.44.7,14.08,2.31,14.5,2.4v9.86c-.82.17-10.56,1.94-14.6,2.61-1.47.25-2.32,1.04-2.67,2.47-.88,3.5-2.25,6.81-4.09,9.92-.83,1.4-.72,2.62.23,3.92,2.55,3.47,8.16,11.31,8.43,11.69-1.77,1.73-3.51,3.42-5.24,5.11l2.9,5.13.5-.5c2.41-2.41,4.82-4.81,7.21-7.24,1.19-1.2,1.27-2.43.35-3.83-.1-.15-.21-.29-.32-.44-2.67-3.71-5.34-7.41-8-11.12-.31-.43-.6-.89-.79-1.18,1.23-2.98,2.39-5.79,3.63-8.79,1.65-.29,3.39-.6,5.14-.91,3.39-.59,6.78-1.16,10.17-1.78,1.81-.34,2.57-1.25,2.57-3.07.02-4.65.02-9.29,0-13.93-.01-1.72-.86-2.7-2.55-2.97Z"/>
    <path d="m180.3,150.81c-14.21-.08-25.83,11.27-25.92,25.33-.06,9.89,5.41,18.51,13.51,22.89l-6.13-10.85,1.51-2.56c-1.47-2.66-2.31-5.71-2.35-8.94-.12-10.8,8.79-19.33,19.11-19.33,6.43.01,12.23,3.32,15.68,8.3l5.81.05,3.76,6.65c-1.96-12.11-12.42-21.46-24.98-21.54Z"/>
  </g>
  <path class="cls-1" d="m198.59,170.67l10.14,17.93-6.7,11.37,19.69,34.81c1.74,3.09.66,7-2.43,8.74s-7,.66-8.74-2.43l-19.69-34.81-13.19-.12-10.14-17.93,5.75-9.77,10.14,17.93,9.26.08,4.7-7.98-10.14-17.93,11.34.1Z"/>
</svg>