<?xml version="1.0" encoding="UTF-8"?>
<svg id="Layer_1" data-name="Layer 1" xmlns="http://www.w3.org/2000/svg" viewBox="0 0 360 360">
  <defs>
    <style>
      .cls-1 {
        fill: none;
        stroke: #000;
        stroke-miterlimit: 10;
        stroke-width: 7px;
      }
    </style>
  </defs>
  <polyline class="cls-1" points="233.7 175.14 233.7 242.11 126.3 242.11 126.3 175.14"/>
  <rect class="cls-1" x="186.35" y="190.42" width="29.76" height="51.69"/>
  <rect class="cls-1" x="144.59" y="193.59" width="25.15" height="30.07"/>
  <g>
    <path class="cls-1" d="m227.35,168.92h0c8.79,0,13.08-9.09,9.91-19.25l-9.91-31.78h-23.82l4.93,31.78c1.57,10.15,10.11,19.25,18.9,19.25Z"/>
    <path class="cls-1" d="m195.92,168.92h0c8.79,0,14.49-9.09,12.9-19.25l-4.99-31.78h-23.82v31.78c0,10.15,7.13,19.25,15.92,19.25Z"/>
    <path class="cls-1" d="m164.08,168.92h0c8.79,0,15.92-9.09,15.92-19.25v-31.78h-23.82l-4.99,31.78c-1.59,10.15,4.11,19.25,12.9,19.25Z"/>
    <path class="cls-1" d="m132.65,168.92h0c8.79,0,17.33-9.09,18.9-19.25l4.93-31.78h-23.82l-9.91,31.78c-3.17,10.15,1.12,19.25,9.91,19.25Z"/>
  </g>
</svg>