<?xml version="1.0" encoding="UTF-8"?>
<svg id="Layer_1" data-name="Layer 1" xmlns="http://www.w3.org/2000/svg" viewBox="0 0 360 360">
  <defs>
    <style>
      .cls-1 {
        fill: none;
        stroke: #000;
        stroke-miterlimit: 10;
        stroke-width: 7px;
      }
    </style>
  </defs>
  <path class="cls-1" d="m217.59,209.21c0,1.7-.05,3.39-.16,5.06-.73,12-3.99,23.29-8.31,33.33-.61,1.43-1.24,2.83-1.89,4.2h-54.48c-.65-1.37-1.28-2.76-1.89-4.19-4.31-10.04-7.57-21.34-8.3-33.34-.11-1.67-.16-3.36-.16-5.06,0-20.91,8.05-39.98,16.7-54.44,10.04-16.79,20.89-27.36,20.89-27.36,0,0,10.85,10.57,20.89,27.36,8.66,14.46,16.71,33.53,16.71,54.44Z"/>
  <path class="cls-1" d="m192.79,273.46c-5.23,11.05-12.8,18.43-12.8,18.43,0,0-7.57-7.38-12.8-18.43"/>
  <polyline class="cls-1" points="198.89 251.81 198.89 263.6 161.1 263.6 161.1 251.81"/>
  <circle class="cls-1" cx="180" cy="189.91" r="12.8"/>
  <line class="cls-1" x1="180" y1="251.81" x2="180" y2="217.98"/>
  <path class="cls-1" d="m200.89,154.77c-5.79,4.43-13.03,7.06-20.89,7.06s-15.1-2.63-20.89-7.06c10.04-16.79,20.89-27.36,20.89-27.36,0,0,10.85,10.57,20.89,27.36Z"/>
  <g>
    <path class="cls-1" d="m150.86,247.61l-22.06,15.99v-39.36l13.76-9.97c.73,12,3.99,23.3,8.3,33.34Z"/>
    <path class="cls-1" d="m231.2,224.24v39.36l-22.07-16c4.32-10.04,7.58-21.33,8.31-33.33l13.76,9.97Z"/>
  </g>
</svg>